<svg id="Capa_1" enable-background="new 0 0 512 512" height="512" viewBox="0 0 512 512" width="512" xmlns="http://www.w3.org/2000/svg"><g><path d="m365.453 147.574-19.957-25.626-26.601 46.074c9.559 3.563 23.992-1.287 32.158 4.493z" fill="#dae4ea"/><path d="m398.242 90.782 9.997-17.316c3.077-5.33 1.251-12.146-4.079-15.223l-6.762-3.904c-5.33-3.077-12.146-1.251-15.223 4.079l-17.113 29.641c1.806.806 31.579 1.563 33.18 2.723z" fill="#dae4ea"/><path d="m342.068 57.992c-11.122-6.421-17.973-18.288-17.973-31.131 0-14.835-12.027-26.861-26.862-26.861h-82.466c-14.835 0-26.861 12.026-26.861 26.862 0 12.842-6.851 24.709-17.973 31.131 0 0-20.4 11.778-35.433 20.458 17.379-10.028 17.952 12.332 54.489-1.454 15.757-11.658 25.301-30.291 25.301-50.134 0-.264.214-.478.478-.478h82.467c.264 0 .478.214.478.478 0 19.843 9.544 38.477 25.301 50.134 22.216 13.786 54.488 1.454 54.488 1.454-15.034-8.681-35.434-20.459-35.434-20.459z" fill="#c6d0da"/><g fill="#dae4ea"><path d="m121.25 103.758c1.601-1.16 16.767-27.218 18.572-28.024l-9.997-17.316c-3.077-5.33-9.893-7.156-15.223-4.079l-6.761 3.904c-5.33 3.077-7.156 9.893-4.079 15.223z"/><path d="m172.61 132.526-32.241 4.348 27.491 47.616c8.165-5.78 9.967-22.809 19.137-27.045z"/><path d="m351.054 441.599c-10.699-1.806-18.189-1.113-26.051 15.071l28.727 49.757c3.077 5.33 9.893 7.156 15.223 4.079l6.762-3.904c5.33-3.077 7.156-9.893 4.079-15.223z"/><path d="m160.946 441.599-28.74 49.779c-3.077 5.33-1.251 12.146 4.079 15.223l6.761 3.904c5.33 3.077 12.146 1.251 15.223-4.079l28.727-49.757c-4.97-10.718-10.926-15.07-26.05-15.07z"/></g><path d="m256 152.124c-4.267 0-7.726-3.459-7.726-7.726v-42.876c0-4.267 3.459-7.726 7.726-7.726s7.726 3.459 7.726 7.726v42.876c0 4.266-3.459 7.726-7.726 7.726z" fill="#c6d0da"/><circle cx="256" cy="307.057" fill="#f1d333" r="164.72"/><circle cx="256" cy="307.057" fill="#f6f9f9" r="134.773"/><path d="m294.723 177.93c33.265 24.542 54.843 64.012 54.843 108.523 0 74.433-60.34 134.773-134.773 134.773-13.46 0-26.458-1.973-38.723-5.646 22.363 16.498 50.008 26.25 79.93 26.25 74.433 0 134.773-60.34 134.773-134.773 0-60.974-40.491-112.489-96.05-129.127z" fill="#e7ecf1"/><path d="m104.981 171.572 109.195-63.044c1.533-.885 2.058-2.845 1.173-4.377l-2.749-4.762c-15.791-27.35-50.764-36.721-78.114-20.931l-15.701 9.065c-27.351 15.791-36.721 50.764-20.931 78.114l2.749 4.762c.885 1.532 2.845 2.057 4.378 1.173z" fill="#f1d333"/><path d="m407.019 171.572-109.195-63.044c-1.533-.885-2.058-2.845-1.173-4.377l2.749-4.762c15.791-27.35 50.764-36.721 78.114-20.931l15.701 9.065c27.35 15.791 36.721 50.764 20.931 78.114l-2.749 4.762c-.885 1.532-2.845 2.057-4.378 1.173z" fill="#f1d333"/><path d="m215.349 104.15-2.749-4.762c-10.079-17.458-27.974-27.59-46.713-28.529 2.022 2.443 3.867 5.087 5.506 7.926 2.403 4.163.977 9.486-3.186 11.889l-78.007 45.037c-.246 10.149 2.206 20.491 7.654 29.926l2.749 4.762c.885 1.533 2.845 2.058 4.377 1.173l109.195-63.044c1.534-.885 2.059-2.845 1.174-4.378z" fill="#ecc32e"/><path d="m393.215 87.522-15.701-9.065c-5.902-3.408-12.16-5.643-18.503-6.78 21.841 17.324 28.283 48.49 13.927 73.355-1.149 1.99-2.965 3.354-5.003 3.974l39.083 22.565c1.533.885 3.493.36 4.377-1.173l2.75-4.762c15.792-27.35 6.421-62.323-20.93-78.114z" fill="#ecc32e"/><path d="m269.884 107.187h-27.781c-4.267 0-7.726-3.459-7.726-7.726s3.459-7.726 7.726-7.726h27.781c4.267 0 7.726 3.459 7.726 7.726s-3.459 7.726-7.726 7.726z" fill="#dae4ea"/><path d="m341.708 269.345-28.862-28.862c-1.51-1.51-3.959-1.51-5.469 0l-64.486 64.486c-1.51 1.51-3.959 1.51-5.469 0l-31.686-31.686c-1.51-1.51-3.959-1.51-5.469 0l-28.862 28.862c-1.51 1.51-1.51 3.959 0 5.469l66.017 66.016c1.51 1.51 3.959 1.51 5.469 0l98.817-98.817c1.51-1.509 1.51-3.958 0-5.468z" fill="#80e29d"/></g></svg>