<svg id="Capa_1" enable-background="new 0 0 512 512" height="512" viewBox="0 0 512 512" width="512" xmlns="http://www.w3.org/2000/svg"><g><g><path clip-rule="evenodd" d="m233.501 97.507-205.748-21.408v-57.906c0-10.013 8.169-18.193 18.183-18.193h84.042l19.594 18.45 61.203 57.649z" fill="#e5384f" fill-rule="evenodd"/></g><g><path clip-rule="evenodd" d="m439.249 18.193v57.907h-265.293l-43.978-76.1h291.109c9.992 0 18.162 8.18 18.162 18.193z" fill="#365e7d" fill-rule="evenodd"/></g><g><path clip-rule="evenodd" d="m27.748 76.101v233.325c0 10.016 8.176 18.193 18.192 18.193h26.778l366.535-143.265v-108.253h-265.294z" fill="#a1d4ff" fill-rule="evenodd"/></g><g><path d="m165.035 76.099-43.772-76.099h17.647l10.662 18.45 31.081 53.786c.515.907 1.308 2.277 2.143 3.863z" fill="#dddaec"/></g><g><path clip-rule="evenodd" d="m72.718 260.483 83.37 19.449 62.87-19.449 2.248-36.532-46.255-39.598h-84.04c-10.016 0-18.192 8.177-18.192 18.193v57.937z" fill="#e5384f" fill-rule="evenodd"/></g><g><path clip-rule="evenodd" d="m218.958 260.483 81.092 26.048 184.202-26.048v-57.937c0-10.016-8.206-18.193-18.192-18.193h-26.807-264.301z" fill="#365e7d" fill-rule="evenodd"/></g><g><path clip-rule="evenodd" d="m72.718 493.807c0 9.987 8.176 18.193 18.192 18.193h375.149c9.987 0 18.192-8.206 18.192-18.193v-233.324h-265.293-146.24v67.136z" fill="#f9f7f8" fill-rule="evenodd"/></g><g><path clip-rule="evenodd" d="m370.484 18.193v57.908h68.769v-57.908c0-10.016-8.177-18.193-18.164-18.193h-68.798c10.016 0 18.193 8.177 18.193 18.193z" fill="#2b4d66" fill-rule="evenodd"/></g><g><path clip-rule="evenodd" d="m370.484 76.101v73.238 35.014h26.777 41.992v-108.252z" fill="#80b4fb" fill-rule="evenodd"/></g><g><path d="m391.253 45.807c-2.497 0-4.947-1.208-6.436-3.442-2.367-3.55-1.407-8.348 2.143-10.714l.088-.058c3.551-2.367 8.348-1.407 10.714 2.143 2.367 3.55 1.407 8.348-2.143 10.714l-.088.058c-1.317.878-2.806 1.299-4.278 1.299z" fill="#7fdbae"/></g><g><path d="m346.145 45.762c-1.975 0-3.948-.747-5.45-2.248-3.017-3.017-3.046-7.88-.029-10.897l.058-.058c3.018-3.017 7.909-3.017 10.928 0 3.017 3.017 3.017 7.909 0 10.927-1.516 1.515-3.513 2.276-5.507 2.276z" fill="#ffe07d"/></g><g><path d="m306.665 45.762c-1.975 0-3.948-.747-5.45-2.248-3.017-3.017-3.046-7.88-.029-10.897l.058-.058c3.018-3.017 7.909-3.017 10.928 0 3.017 3.017 3.017 7.909 0 10.927-1.516 1.515-3.513 2.276-5.507 2.276z" fill="#e5384f"/></g><g><path d="m245.444 122.023h-105.446c-4.268 0-7.726-3.459-7.726-7.726s3.459-7.726 7.726-7.726h105.446c4.268 0 7.726 3.459 7.726 7.726s-3.459 7.726-7.726 7.726zm-148.664 0h-22.134c-4.268 0-7.726-3.459-7.726-7.726s3.459-7.726 7.726-7.726h22.134c4.268 0 7.726 3.459 7.726 7.726s-3.459 7.726-7.726 7.726z" fill="#2b4d66"/></g><g><path d="m392.355 157.066h-53.088c-4.268 0-7.726-3.459-7.726-7.726s3.459-7.726 7.726-7.726h53.088c4.268 0 7.726 3.459 7.726 7.726s-3.458 7.726-7.726 7.726zm-94.582 0h-163.119c-4.268 0-7.726-3.459-7.726-7.726s3.459-7.726 7.726-7.726h163.119c4.268 0 7.726 3.459 7.726 7.726s-3.459 7.726-7.726 7.726z" fill="#2b4d66"/></g><g><path clip-rule="evenodd" d="m439.253 184.353h-41.991c7.096 0 13.287 4.117 16.265 10.046 1.226 2.453 1.927 5.227 1.927 8.147v57.937h68.798v-57.937c0-10.016-8.206-18.193-18.192-18.193z" fill="#2b4d66" fill-rule="evenodd"/></g><g><path clip-rule="evenodd" d="m484.252 260.483h-68.798v9.724 78.787l21.492 21.464c10.6 10.63 10.6 27.917 0 38.547l-21.492 21.464v63.339c0 9.987-8.176 18.193-18.192 18.193h68.798c9.987 0 18.192-8.206 18.192-18.193z" fill="#dddaec" fill-rule="evenodd"/></g><g><path d="m210.033 260.482-43.874-76.13h17.716l41.771 72.263c.594 1.028 1.421 2.388 2.224 3.862z" fill="#dddaec"/></g><g><path clip-rule="evenodd" d="m120.024 409.004 56.358 56.36c6.833 6.833 17.988 6.833 24.85 0 6.833-6.833 6.833-17.988 0-24.851l-50.81-50.782 50.81-50.812c6.833-6.833 6.833-17.988 0-24.822-6.862-6.833-18.017-6.833-24.85 0l-56.358 56.36c-10.629 10.63-10.629 27.918 0 38.547z" fill="#a7e9a6" fill-rule="evenodd"/></g><g><path clip-rule="evenodd" d="m283.873 319.179-44.036 129.832c-3.095 9.14 1.84 19.157 11.009 22.252 9.14 3.095 19.156-1.84 22.251-10.98l44.036-129.832c3.095-9.169-1.84-19.157-11.009-22.281-9.14-3.096-19.156 1.839-22.251 11.009z" fill="#a7e9a6" fill-rule="evenodd"/></g><g><path clip-rule="evenodd" d="m355.737 338.919 50.81 50.812-50.81 50.782c-6.833 6.862-6.833 18.018 0 24.851s17.988 6.833 24.85 0l56.358-56.36c10.6-10.63 10.6-27.917 0-38.547l-56.358-56.36c-6.862-6.833-18.017-6.833-24.85 0-6.833 6.834-6.833 17.989 0 24.822z" fill="#a7e9a6" fill-rule="evenodd"/></g><g><path d="m436.215 230.188c-1.992 0-3.983-.766-5.495-2.294-3-3.035-2.972-7.927.063-10.927l.089-.088c3.032-3 7.925-2.972 10.927.062 3 3.035 2.972 7.927-.063 10.927l-.089.088c-1.505 1.489-3.469 2.232-5.432 2.232z" fill="#7fdbae"/></g><g><path d="m391.1 230.188c-1.977 0-3.955-.755-5.464-2.263-3.017-3.017-3.017-7.909 0-10.927l.088-.088c3.018-3.017 7.909-3.017 10.928 0 3.017 3.017 3.017 7.909 0 10.927l-.088.088c-1.51 1.508-3.488 2.263-5.464 2.263z" fill="#ffe07d"/></g><g><path d="m351.62 230.188c-1.977 0-3.955-.755-5.464-2.263-3.017-3.017-3.017-7.909 0-10.927l.088-.088c3.018-3.017 7.909-3.017 10.928 0 3.017 3.017 3.017 7.909 0 10.927l-.088.088c-1.51 1.508-3.487 2.263-5.464 2.263z" fill="#e5384f"/></g></g></svg>